<mxfile host="app.diagrams.net" agent="Mozilla/5.0 (Macintosh; Intel Mac OS X 10_15_7) AppleWebKit/605.1.15 (KHTML, like Gecko) Version/18.3 Safari/605.1.15" version="26.1.0">
  <diagram id="C5RBs43oDa-KdzZeNtuy" name="i68u3h_2a">
    <mxGraphModel dx="719" dy="427" grid="1" gridSize="10" guides="1" tooltips="1" connect="1" arrows="1" fold="1" page="1" pageScale="1" pageWidth="1169" pageHeight="827" background="#FFFFFF" math="0" shadow="0">
      <root>
        <mxCell id="WIyWlLk6GJQsqaUBKTNV-0" />
        <mxCell id="WIyWlLk6GJQsqaUBKTNV-1" parent="WIyWlLk6GJQsqaUBKTNV-0" />
        <mxCell id="5OVwz712XvVLztq_tDMF-0" value="&lt;b&gt;Gyártók&lt;/b&gt;" style="rounded=0;whiteSpace=wrap;html=1;fillColor=#d5e8d4;strokeColor=#82b366;" parent="WIyWlLk6GJQsqaUBKTNV-1" vertex="1">
          <mxGeometry x="185" y="155" width="120" height="50" as="geometry" />
        </mxCell>
        <mxCell id="5OVwz712XvVLztq_tDMF-1" value="" style="edgeStyle=orthogonalEdgeStyle;rounded=0;orthogonalLoop=1;jettySize=auto;html=1;" parent="WIyWlLk6GJQsqaUBKTNV-1" source="5OVwz712XvVLztq_tDMF-2" target="5OVwz712XvVLztq_tDMF-0" edge="1">
          <mxGeometry relative="1" as="geometry" />
        </mxCell>
        <mxCell id="5OVwz712XvVLztq_tDMF-2" value="&lt;b&gt;GY-T&lt;/b&gt;" style="rhombus;whiteSpace=wrap;html=1;fillColor=#f5f5f5;fontColor=#333333;strokeColor=#666666;" parent="WIyWlLk6GJQsqaUBKTNV-1" vertex="1">
          <mxGeometry x="415" y="140" width="80" height="80" as="geometry" />
        </mxCell>
        <mxCell id="5OVwz712XvVLztq_tDMF-3" value="&lt;b&gt;Termékek&lt;/b&gt;" style="rounded=0;whiteSpace=wrap;html=1;fillColor=#fff2cc;strokeColor=#d6b656;" parent="WIyWlLk6GJQsqaUBKTNV-1" vertex="1">
          <mxGeometry x="595" y="155" width="120" height="50" as="geometry" />
        </mxCell>
        <mxCell id="5OVwz712XvVLztq_tDMF-4" value="" style="endArrow=classic;html=1;rounded=0;exitX=1;exitY=0.5;exitDx=0;exitDy=0;" parent="WIyWlLk6GJQsqaUBKTNV-1" source="5OVwz712XvVLztq_tDMF-2" edge="1">
          <mxGeometry width="50" height="50" relative="1" as="geometry">
            <mxPoint x="495" y="280" as="sourcePoint" />
            <mxPoint x="575" y="180" as="targetPoint" />
          </mxGeometry>
        </mxCell>
        <mxCell id="5OVwz712XvVLztq_tDMF-5" value="" style="endArrow=classic;html=1;rounded=0;entryX=0;entryY=0.5;entryDx=0;entryDy=0;" parent="WIyWlLk6GJQsqaUBKTNV-1" source="5OVwz712XvVLztq_tDMF-2" target="5OVwz712XvVLztq_tDMF-3" edge="1">
          <mxGeometry width="50" height="50" relative="1" as="geometry">
            <mxPoint x="495" y="280" as="sourcePoint" />
            <mxPoint x="545" y="230" as="targetPoint" />
          </mxGeometry>
        </mxCell>
        <mxCell id="5OVwz712XvVLztq_tDMF-6" value="&lt;u&gt;Adószám&lt;/u&gt;" style="ellipse;whiteSpace=wrap;html=1;" parent="WIyWlLk6GJQsqaUBKTNV-1" vertex="1">
          <mxGeometry x="120" y="230" width="70" height="40" as="geometry" />
        </mxCell>
        <mxCell id="5OVwz712XvVLztq_tDMF-7" value="Név" style="ellipse;whiteSpace=wrap;html=1;" parent="WIyWlLk6GJQsqaUBKTNV-1" vertex="1">
          <mxGeometry x="210" y="230" width="70" height="40" as="geometry" />
        </mxCell>
        <mxCell id="5OVwz712XvVLztq_tDMF-8" value="Telephely" style="ellipse;whiteSpace=wrap;html=1;" parent="WIyWlLk6GJQsqaUBKTNV-1" vertex="1">
          <mxGeometry x="300" y="230" width="70" height="40" as="geometry" />
        </mxCell>
        <mxCell id="5OVwz712XvVLztq_tDMF-9" value="" style="endArrow=none;html=1;rounded=0;entryX=0.5;entryY=1;entryDx=0;entryDy=0;exitX=0.5;exitY=0;exitDx=0;exitDy=0;" parent="WIyWlLk6GJQsqaUBKTNV-1" source="5OVwz712XvVLztq_tDMF-6" target="5OVwz712XvVLztq_tDMF-0" edge="1">
          <mxGeometry width="50" height="50" relative="1" as="geometry">
            <mxPoint x="425" y="280" as="sourcePoint" />
            <mxPoint x="475" y="230" as="targetPoint" />
          </mxGeometry>
        </mxCell>
        <mxCell id="5OVwz712XvVLztq_tDMF-10" value="" style="endArrow=none;html=1;rounded=0;entryX=0.5;entryY=1;entryDx=0;entryDy=0;exitX=0.5;exitY=0;exitDx=0;exitDy=0;" parent="WIyWlLk6GJQsqaUBKTNV-1" source="5OVwz712XvVLztq_tDMF-8" target="5OVwz712XvVLztq_tDMF-0" edge="1">
          <mxGeometry width="50" height="50" relative="1" as="geometry">
            <mxPoint x="425" y="280" as="sourcePoint" />
            <mxPoint x="475" y="230" as="targetPoint" />
          </mxGeometry>
        </mxCell>
        <mxCell id="5OVwz712XvVLztq_tDMF-11" value="" style="endArrow=none;html=1;rounded=0;entryX=0.5;entryY=1;entryDx=0;entryDy=0;" parent="WIyWlLk6GJQsqaUBKTNV-1" source="5OVwz712XvVLztq_tDMF-7" target="5OVwz712XvVLztq_tDMF-0" edge="1">
          <mxGeometry width="50" height="50" relative="1" as="geometry">
            <mxPoint x="445" y="290" as="sourcePoint" />
            <mxPoint x="495" y="240" as="targetPoint" />
          </mxGeometry>
        </mxCell>
        <mxCell id="5OVwz712XvVLztq_tDMF-12" value="&lt;u&gt;Tkód&lt;/u&gt;" style="ellipse;whiteSpace=wrap;html=1;" parent="WIyWlLk6GJQsqaUBKTNV-1" vertex="1">
          <mxGeometry x="525" y="230" width="70" height="40" as="geometry" />
        </mxCell>
        <mxCell id="5OVwz712XvVLztq_tDMF-13" value="ear" style="ellipse;whiteSpace=wrap;html=1;" parent="WIyWlLk6GJQsqaUBKTNV-1" vertex="1">
          <mxGeometry x="705" y="230" width="70" height="40" as="geometry" />
        </mxCell>
        <mxCell id="5OVwz712XvVLztq_tDMF-14" value="Név" style="ellipse;whiteSpace=wrap;html=1;" parent="WIyWlLk6GJQsqaUBKTNV-1" vertex="1">
          <mxGeometry x="620" y="230" width="70" height="40" as="geometry" />
        </mxCell>
        <mxCell id="5OVwz712XvVLztq_tDMF-15" value="" style="endArrow=none;html=1;rounded=0;entryX=0.5;entryY=1;entryDx=0;entryDy=0;exitX=0.5;exitY=0;exitDx=0;exitDy=0;" parent="WIyWlLk6GJQsqaUBKTNV-1" source="5OVwz712XvVLztq_tDMF-13" target="5OVwz712XvVLztq_tDMF-3" edge="1">
          <mxGeometry width="50" height="50" relative="1" as="geometry">
            <mxPoint x="425" y="280" as="sourcePoint" />
            <mxPoint x="475" y="230" as="targetPoint" />
          </mxGeometry>
        </mxCell>
        <mxCell id="5OVwz712XvVLztq_tDMF-16" value="" style="endArrow=none;html=1;rounded=0;entryX=0.5;entryY=1;entryDx=0;entryDy=0;exitX=0.5;exitY=0;exitDx=0;exitDy=0;" parent="WIyWlLk6GJQsqaUBKTNV-1" source="5OVwz712XvVLztq_tDMF-14" target="5OVwz712XvVLztq_tDMF-3" edge="1">
          <mxGeometry width="50" height="50" relative="1" as="geometry">
            <mxPoint x="425" y="280" as="sourcePoint" />
            <mxPoint x="475" y="230" as="targetPoint" />
          </mxGeometry>
        </mxCell>
        <mxCell id="5OVwz712XvVLztq_tDMF-17" value="" style="endArrow=none;html=1;rounded=0;entryX=0.5;entryY=1;entryDx=0;entryDy=0;exitX=0.5;exitY=0;exitDx=0;exitDy=0;" parent="WIyWlLk6GJQsqaUBKTNV-1" source="5OVwz712XvVLztq_tDMF-12" target="5OVwz712XvVLztq_tDMF-3" edge="1">
          <mxGeometry width="50" height="50" relative="1" as="geometry">
            <mxPoint x="425" y="280" as="sourcePoint" />
            <mxPoint x="475" y="230" as="targetPoint" />
          </mxGeometry>
        </mxCell>
      </root>
    </mxGraphModel>
  </diagram>
</mxfile>
